<?xml version="1.0" encoding="utf-8"?>
<!-- Generator: Adobe Illustrator 27.4.1, SVG Export Plug-In . SVG Version: 6.00 Build 0)  -->
<svg version="1.1" id="Calque_1" xmlns="http://www.w3.org/2000/svg" xmlns:xlink="http://www.w3.org/1999/xlink" x="0px" y="0px"
	 viewBox="0 0 400 400" style="enable-background:new 0 0 400 400;" xml:space="preserve">
<style type="text/css">
	.st0{fill:#3E4347;}
	.st1{fill:#FFFFFF;}
	.st2{fill:#E8E8E8;}
	.st3{fill:#B7B7B7;}
	.st4{fill:none;}
</style>
<g>
	<g>
		<path class="st0" d="M219.1,184.8l-4.3-4.3c-0.3-0.3-0.8-0.5-1.1-0.5h-28.9v2.6h-2.6V180h-1.3c-0.4,0-0.7,0.3-0.7,0.7v38.1
			c0,0.4,0.3,0.7,0.7,0.7h38.1c0.4,0,0.7-0.3,0.7-0.7V186C219.6,185.6,219.4,185.1,219.1,184.8z"/>
		<path class="st1" d="M186.7,219.5v-18.4c0-0.7,0.6-1.3,1.3-1.3h23.7c0.7,0,1.3,0.6,1.3,1.3v18.4H186.7z"/>
		<path class="st2" d="M190.7,180v13.1c0,0.7,0.6,1.3,1.3,1.3h19.7c0.7,0,1.3-0.6,1.3-1.3V180H190.7z"/>
		<rect x="202.5" y="182.7" class="st0" width="6.6" height="10.5"/>
		<path class="st1" d="M217.6,215.5c0-0.4-0.3-0.7-0.7-0.7h-1.3c-0.4,0-0.7,0.3-0.7,0.7v1.3c0,0.4,0.3,0.7,0.7,0.7h1.3
			c0.4,0,0.7-0.3,0.7-0.7V215.5z"/>
		<rect x="186.7" y="214.2" class="st3" width="26.3" height="5.3"/>
		<rect x="190" y="202.4" class="st4" width="19.7" height="1.3"/>
		<rect x="190" y="206.3" class="st3" width="19.7" height="1.3"/>
		<rect x="190" y="210.3" class="st4" width="19.7" height="1.3"/>
	</g>
</g>
</svg>
